<?xml version="1.0" encoding="UTF-8"?>
<svg width="24px" height="24px" color="#000000" fill="none" version="1.1" viewBox="0 0 24 24" xmlns="http://www.w3.org/2000/svg">
 <path d="m11 8.5-1.2 0.5-7.4483 3.3856c-0.2142 0.0973-0.35172 0.3109-0.35172 0.5462v0.1364c0 0.2353 0.13752 0.4489 0.35172 0.5462l8.8207 4.0094c0.5258 0.239 1.1294 0.239 1.6552 0l8.8207-4.0094c0.2142-0.0973 0.3517-0.3109 0.3517-0.5462v-0.1364c0-0.2353-0.1375-0.4489-0.3517-0.5462l-7.4483-3.3856-1.2-0.5" stroke="#fff" stroke-width="1.5"/>
 <path d="m22 13v4.112c0 0.2362-0.1385 0.4503-0.3538 0.5472l-8.8255 3.9715c-0.5219 0.2348-1.1195 0.2348-1.6414 0l-8.8255-3.9715c-0.21531-0.0969-0.35378-0.311-0.35378-0.5472v-4.112" stroke="#fff" stroke-width="1.5"/>
 <path d="m12 8c-1.6569 0-3-1.3432-3-3s1.3431-3 3-3 3 1.3432 3 3-1.3431 3-3 3z" stroke="#fff" stroke-linecap="round" stroke-linejoin="round" stroke-width="1.5"/>
 <path d="m11 8v5c0 0.5523 0.4477 1 1 1s1-0.4477 1-1v-5" stroke="#fff" stroke-width="1.5"/>
 <path d="m16 13h1" stroke="#fff" stroke-linecap="round" stroke-linejoin="round" stroke-width="1.5"/>
</svg>
