<?xml version="1.0" encoding="UTF-8"?>
<svg width="24px" height="24px" color="#000000" fill="none" version="1.1" viewBox="0 0 24 24" xmlns="http://www.w3.org/2000/svg">
 <path d="m17.5 17.5c2.5 3.5 6.4486 0.9151 5.5-2.5-1.4247-5.1289-2.1999-7.9844-2.6031-9.4921-0.2372-0.88657-1.0407-1.5079-1.9585-1.5079h-12.877c-0.91773 0-1.7176 0.62481-1.9407 1.515-0.83935 3.3485-1.5882 6.2866-2.4767 9.485-0.94865 3.4151 3 6 5.5 2.5" stroke="#fff" stroke-linecap="round" stroke-linejoin="round" stroke-width="1.5"/>
 <path d="m18 8.5 0.0111 0.01" stroke="#fff" stroke-linecap="round" stroke-linejoin="round" stroke-width="1.5"/>
 <path d="m16.49 7 0.0111 0.01" stroke="#fff" stroke-linecap="round" stroke-linejoin="round" stroke-width="1.5"/>
 <path d="m16.49 10 0.0111 0.01" stroke="#fff" stroke-linecap="round" stroke-linejoin="round" stroke-width="1.5"/>
 <path d="m15 8.5 0.0111 0.01" stroke="#fff" stroke-linecap="round" stroke-linejoin="round" stroke-width="1.5"/>
 <path d="m7 7v3" stroke="#fff" stroke-linecap="round" stroke-linejoin="round" stroke-width="1.5"/>
 <path d="m5.5 8.5h3" stroke="#fff" stroke-linecap="round" stroke-linejoin="round" stroke-width="1.5"/>
 <path d="m8 16c1.1046 0 2-0.8954 2-2s-0.89543-2-2-2-2 0.8954-2 2 0.89543 2 2 2z" stroke="#fff" stroke-linecap="round" stroke-linejoin="round" stroke-width="1.5"/>
 <path d="m16 16c1.1046 0 2-0.8954 2-2s-0.8954-2-2-2-2 0.8954-2 2 0.8954 2 2 2z" stroke="#fff" stroke-linecap="round" stroke-linejoin="round" stroke-width="1.5"/>
</svg>
